<?xml version="1.0" encoding="utf-8"?>
<!-- Generator: Adobe Illustrator 16.0.0, SVG Export Plug-In . SVG Version: 6.00 Build 0)  -->
<!DOCTYPE svg PUBLIC "-//W3C//DTD SVG 1.1//EN" "http://www.w3.org/Graphics/SVG/1.1/DTD/svg11.dtd">
<svg version="1.1" id="Layer_1" xmlns="http://www.w3.org/2000/svg" xmlns:xlink="http://www.w3.org/1999/xlink" x="0px" y="0px"
	 width="788px" height="66.599px" viewBox="0 0 788 66.599" enable-background="new 0 0 788 66.599" xml:space="preserve">
<g>
	<path fill="#FFFFFF" d="M21.062,46.468c0.065-0.278,0.173-0.554,0.188-0.835c0.248-4.727,0.501-9.452,0.719-14.179
		c0.281-6.099,0.533-12.198,0.795-18.299c0.093-2.148,0.181-4.298,0.272-6.447c0.04-0.947,0.726-1.436,1.666-1.421
		c2.857,0.042,5.717,0.039,8.574-0.015c1.006-0.018,1.595,0.385,1.591,1.347c-0.026,6.105-0.069,12.212-0.077,18.317
		c-0.012,9.858-0.005,19.716,0.003,29.574c0.001,1.06,0.061,2.12,0.1,3.179c0.044,1.227-0.488,1.685-1.696,1.622
		c-1.439-0.073-2.883-0.075-4.324-0.052c-1.247,0.02-1.593-0.29-1.574-1.538c0.103-6.79,0.218-13.579,0.293-20.369
		c0.021-1.846-0.075-3.692-0.132-5.539c-0.009-0.318-0.088-0.635-0.135-0.953c-0.071-0.008-0.142-0.016-0.214-0.023
		c-0.077,0.388-0.194,0.772-0.227,1.165c-0.403,4.669-0.86,9.334-1.166,14.01c-0.251,3.814-0.313,7.641-0.472,11.461
		c-0.014,0.349-0.089,0.705-0.193,1.04c-0.171,0.553-0.552,0.766-1.155,0.758c-1.947-0.025-3.896-0.015-5.844,0.018
		c-0.95,0.015-1.473-0.424-1.523-1.379c-0.293-5.591-0.568-11.182-0.884-16.771c-0.409-7.234-0.85-14.465-1.276-21.697
		c-0.142-2.401-0.288-4.803-0.419-7.205c-0.048-0.899-0.282-1.269-0.866-1.262c-0.654,0.009-1.015,0.505-1.003,1.344
		c0.082,5.825,0.196,11.651,0.23,17.478c0.051,8.641,0.043,17.282,0.065,25.924c0.002,0.708,0.041,1.417,0.072,2.125
		c0.042,0.989-0.355,1.41-1.332,1.406c-1.391-0.006-2.783-0.008-4.175-0.013c-0.904-0.003-1.412-0.51-1.382-1.337
		c0.07-1.92,0.175-3.841,0.177-5.762c0.009-10.973-0.015-21.945-0.011-32.918c0.001-3.697,0.057-7.394,0.078-11.091
		c0.001-0.298-0.049-0.606-0.131-0.895C5.328,6.014,5.839,5.289,7.092,5.304c1.899,0.023,3.797,0.104,5.696,0.097
		c1.415-0.004,2.833-0.068,4.245-0.176c1.183-0.09,1.885,0.477,1.939,1.672c0.359,7.972,0.731,15.941,1.076,23.912
		c0.209,4.833,0.375,9.668,0.568,14.501c0.015,0.385,0.09,0.769,0.137,1.152C20.855,46.464,20.959,46.466,21.062,46.468"/>
	<path fill="#FFFFFF" d="M157.778,53.51c5.346,0,10.692,0.001,16.038-0.001c1.024,0,1.303,0.286,1.303,1.308
		c0,1.062,0.015,2.123,0.039,3.185c0.02,0.854-0.439,1.315-1.295,1.312c-11.07-0.038-22.141-0.073-33.212-0.105
		c-2.482-0.007-4.965,0.004-7.448-0.007c-1.005-0.005-1.405-0.438-1.381-1.389c0.061-2.349,0.15-4.698,0.153-7.047
		c0.016-13.505,0.014-27.011,0.008-40.516c-0.001-1.188-0.062-2.378-0.118-3.565c-0.049-1.023,0.462-1.475,1.479-1.361
		c0.752,0.085,1.515,0.089,2.274,0.089C147.68,5.408,159.74,5.399,171.8,5.386c0.658-0.001,1.316-0.063,1.974-0.08
		c0.896-0.024,1.399,0.523,1.379,1.421c-0.023,1.057-0.02,2.114-0.003,3.172c0.012,0.782-0.423,1.259-1.186,1.255
		c-4.58-0.025-9.161-0.058-13.741-0.069c-5.625-0.012-11.25-0.002-16.875-0.011c-0.53,0-1.061-0.071-1.592-0.091
		c-0.949-0.034-1.369,0.445-1.364,1.394c0.021,4.963,0.021,9.928,0.028,14.891c0.001,0.278-0.027,0.56,0.007,0.835
		c0.082,0.654,0.558,1.02,1.211,0.991c1.792-0.081,3.585-0.215,5.378-0.216c8.209-0.009,16.418,0.025,24.628,0.03
		c0.757,0,1.515-0.095,2.273-0.138c1.149-0.066,1.709,0.5,1.614,1.65c-0.025,0.3-0.148,0.591-0.183,0.891
		c-0.099,0.847-0.258,1.698-0.242,2.546c0.022,1.148-0.548,1.84-1.696,1.835c-10.183-0.052-20.365-0.104-30.548-0.159
		c-0.302-0.002-0.605-0.048-0.905-0.088c-1.038-0.138-1.589,0.349-1.576,1.403c0.027,2.203,0.079,4.405,0.077,6.608
		c-0.003,2.99-0.045,5.979-0.073,8.969c-0.007,0.805,0.299,1.177,1.128,1.198c0.834,0.023,1.67-0.058,2.506-0.059
		c4.586-0.007,9.173-0.003,13.759-0.003V53.51z"/>
	<path fill="#FFFFFF" d="M104.052,31.02c0,7.906-0.015,15.812,0.013,23.719c0.005,1.618-0.66,2.899-1.746,3.984
		c-0.3,0.299-0.852,0.482-1.291,0.486c-3.724,0.035-7.449-0.012-11.174,0.021c-2.447,0.022-3.894-1.507-5.137-3.274
		c-0.34-0.484-0.349-1.269-0.35-1.914c-0.006-13.379,0.019-26.759,0.017-40.138c-0.001-2.379-0.097-4.759-0.149-7.138
		c-0.021-0.984,0.52-1.512,1.487-1.507c1.921,0.009,3.842,0.005,5.762-0.017c0.858-0.01,1.389,0.512,1.38,1.436
		c-0.022,2.355-0.064,4.711-0.068,7.067c-0.017,12.34-0.023,24.68-0.04,37.021c0,0.479-0.07,0.959-0.115,1.438
		c-0.091,0.965,0.332,1.419,1.375,1.465c1.152,0.05,1.596-0.313,1.591-1.306c-0.018-2.99-0.05-5.98-0.052-8.97
		c-0.007-10.212,0-20.424-0.01-30.636c-0.002-1.898-0.053-3.799-0.098-5.698c-0.034-1.415,0.395-1.817,1.782-1.79
		c1.82,0.037,3.641,0.022,5.462-0.002c0.942-0.013,1.458,0.468,1.458,1.43c-0.002,8.107-0.001,16.215-0.001,24.322
		C104.116,31.02,104.084,31.02,104.052,31.02"/>
	<path fill="#FFFFFF" d="M203.012,32.173c0-7.576,0.002-15.153-0.003-22.729c-0.001-0.912-0.05-1.822-0.062-2.734
		c-0.013-0.987,0.407-1.382,1.37-1.383c1.669-0.001,3.338-0.018,5.007-0.05c0.888-0.017,1.5,0.627,1.419,1.479
		c-0.082,0.875-0.146,1.755-0.148,2.634c-0.011,5.396,0.003,10.794-0.01,16.191c-0.001,0.603-0.078,1.215-0.199,1.806
		c-0.14,0.677,0.128,1.131,0.64,1.498c0.542,0.388,1.121,0.425,1.724,0.145c0.571-0.265,0.687-0.746,0.684-1.319
		c-0.029-6.537-0.047-13.074-0.073-19.611c-0.002-0.506-0.048-1.012-0.054-1.519c-0.011-0.847,0.482-1.304,1.318-1.297
		c1.998,0.019,3.996,0.026,5.994,0.019c0.903-0.004,1.343,0.382,1.342,1.253c-0.022,12.92-0.042,25.84-0.069,38.76
		c-0.006,3.37-0.044,6.74-0.05,10.11c-0.001,0.732,0.061,1.467,0.12,2.199c0.096,1.207-0.334,1.69-1.559,1.669
		c-1.165-0.021-2.328-0.096-3.493-0.107c-0.757-0.007-1.517,0.028-2.272,0.09c-0.942,0.078-1.325-0.229-1.322-1.188
		c0.023-6.969,0.054-13.937,0.083-20.904c0.001-0.101,0.005-0.202,0.004-0.304c-0.004-1.187-0.308-1.555-1.271-1.541
		c-1.148,0.016-1.763,0.658-1.748,1.732c0.075,5.393,0.123,10.784,0.201,16.176c0.022,1.515,0.096,3.028,0.182,4.541
		c0.049,0.851-0.579,1.536-1.4,1.516c-1.542-0.039-3.085-0.078-4.626-0.048c-1.397,0.027-1.819-0.359-1.818-1.771
		c0.007-8.437,0.004-16.875,0.004-25.312C202.955,32.173,202.983,32.173,203.012,32.173"/>
	<path fill="#FFFFFF" d="M116.155,32.596h-0.111c0,6.635-0.007,13.271,0.019,19.906c0.001,0.325,0.191,0.792,0.444,0.951
		c1.568,0.986,3.387-0.021,3.394-1.855c0.014-3.899,0.001-7.801,0.015-11.702c0.033-9.218,0.077-18.436,0.115-27.653
		c0.003-0.728-0.469-1.253-1.215-1.284c-0.555-0.023-1.116-0.004-1.67,0.048c-0.842,0.078-1.201,0.532-1.136,1.388
		c0.034,0.453,0.138,0.905,0.139,1.357C116.158,20.033,116.155,26.313,116.155,32.596 M128.346,31.338
		c0,7.422,0.019,14.844-0.012,22.266c-0.009,2.023-0.765,3.787-2.431,5.003c-0.508,0.37-1.253,0.57-1.893,0.579
		c-3.773,0.049-7.548,0.013-11.322,0.02c-0.835,0.002-1.669,0.062-2.503,0.097c-1.289,0.054-1.825-0.561-1.602-1.813
		c0.075-0.423,0.134-0.854,0.134-1.281c-0.005-12.969-0.019-25.938-0.029-38.907c-0.002-2.887,0.014-5.774,0.003-8.661
		c-0.002-0.528-0.048-1.063-0.149-1.581c-0.229-1.172,0.228-1.741,1.423-1.723c2.329,0.035,4.659,0.08,6.989,0.088
		c2.431,0.009,4.863-0.012,7.294-0.037c1.129-0.012,2.148,0.218,2.999,1.035c0.658,0.631,1.049,1.361,1.058,2.272
		c0.016,1.646,0.02,3.292,0.02,4.938c0.003,5.902,0.001,11.804,0.001,17.706H128.346z"/>
	<path fill="#FFFFFF" d="M60.964,32.251C60.965,24.626,60.967,17,60.961,9.375c-0.001-0.836-0.062-1.671-0.079-2.506
		c-0.024-1.141,0.505-1.599,1.625-1.573c1.821,0.042,3.645,0.043,5.467,0.012c1.251-0.021,1.683,0.465,1.613,1.682
		c-0.098,1.692-0.082,3.391-0.108,5.086c-0.067,4.33-0.126,8.661-0.201,12.991c-0.008,0.505-0.101,1.007-0.141,1.512
		c-0.035,0.438-0.085,0.939,0.507,1.014c0.601,0.074,0.847-0.348,0.925-0.882c0.2-1.377,0.372-2.758,0.6-4.131
		c0.434-2.616,0.898-5.229,1.354-7.844c0.448-2.566,0.932-5.127,1.341-7.701c0.225-1.418,0.697-1.788,2.116-1.709
		c1.488,0.082,2.986,0.072,4.476,0.01c1.545-0.063,1.905,0.44,1.46,1.889c-0.407,1.324-0.626,2.707-0.9,4.068
		c-0.792,3.942-1.57,7.888-2.354,11.83c-0.39,1.96-0.811,3.914-1.156,5.883c-0.102,0.58-0.074,1.215,0.034,1.798
		c0.292,1.564,0.709,3.107,0.985,4.676c0.456,2.592,0.815,5.202,1.261,7.797c0.753,4.386,1.536,8.768,2.325,13.148
		c0.08,0.442,0.282,0.863,0.425,1.296c0.282,0.858-0.116,1.507-1.017,1.521c-1.95,0.028-3.901,0.022-5.851-0.012
		c-0.835-0.014-1.273-0.483-1.409-1.317c-0.666-4.096-1.36-8.188-1.996-12.289c-0.558-3.594-1.048-7.198-1.577-10.798
		c-0.062-0.423-0.129-0.857-0.293-1.245c-0.075-0.176-0.407-0.358-0.597-0.335c-0.186,0.023-0.42,0.277-0.488,0.479
		c-0.093,0.275-0.065,0.599-0.062,0.9c0.066,7.192,0.134,14.385,0.21,21.576c0.006,0.53,0.072,1.06,0.12,1.588
		c0.097,1.075-0.385,1.535-1.444,1.518c-1.948-0.032-3.896-0.023-5.844,0.01c-0.921,0.016-1.458-0.517-1.434-1.53
		c0.04-1.722,0.101-3.442,0.105-5.165C60.971,45.831,60.963,39.041,60.964,32.251"/>
	<path fill="#FFFFFF" d="M189.56,5.34c1.95,0,3.901,0.024,5.851-0.008c1.337-0.022,2.38,0.434,3.008,1.646
		c0.134,0.26,0.205,0.579,0.208,0.872c0.033,3.344,0.013,6.688,0.086,10.031c0.024,1.141-0.717,1.945-2.002,1.765
		c-1.66-0.232-3.38-0.104-5.07-0.033c-1.138,0.047-1.539-0.257-1.525-1.396c0.023-2.001,0.036-4.003,0.039-6.005
		c0.001-0.813-0.489-1.345-1.156-1.303c-0.633,0.04-1.131,0.771-1.102,1.494c0.062,1.588,0.03,3.182,0.138,4.767
		c0.055,0.793,0.245,1.604,0.527,2.349c0.662,1.75,1.44,3.456,2.126,5.198c0.575,1.458,1.052,2.955,1.631,4.412
		c1.215,3.056,2.489,6.089,3.698,9.147c0.752,1.9,1.528,3.803,2.101,5.76c0.365,1.245,0.473,2.59,0.524,3.896
		c0.079,2.024,0.028,4.054,0.001,6.08c-0.02,1.561-0.419,3-1.475,4.209c-0.51,0.583-1.112,0.952-1.904,0.955
		c-1.596,0.005-3.192,0.01-4.788,0.009c-2.052-0.002-4.106,0.042-6.156-0.03c-2.116-0.074-3.786-1.386-4.409-3.403
		c-0.206-0.669-0.318-1.391-0.33-2.091c-0.039-2.404-0.013-4.811-0.016-7.216c-0.002-1.091,0.449-1.506,1.532-1.493
		c1.898,0.019,3.796,0.01,5.694-0.006c0.808-0.008,1.397,0.499,1.379,1.369c-0.043,1.948-0.123,3.897-0.233,5.844
		c-0.052,0.898,0.286,1.466,1.047,1.527c0.744,0.061,1.177-0.478,1.173-1.406c-0.009-2.356,0.013-4.714-0.016-7.069
		c-0.007-0.521-0.079-1.076-0.276-1.55c-1.266-3.036-2.587-6.048-3.867-9.078c-1.22-2.89-2.395-5.798-3.624-8.684
		c-0.545-1.279-1.295-2.482-1.732-3.795c-0.476-1.43-0.908-2.934-0.986-4.426c-0.153-2.906-0.08-5.826-0.021-8.739
		c0.014-0.701,0.202-1.471,0.541-2.081c0.701-1.258,2.02-1.448,3.303-1.482c2.026-0.052,4.054-0.014,6.081-0.014
		C189.56,5.355,189.56,5.348,189.56,5.34"/>
	<path fill="#FFFFFF" d="M47.88,20.015c0,2.532,0.008,5.064-0.004,7.598c-0.005,1.049,0.392,1.416,1.51,1.382
		c2.302-0.069,4.604-0.134,6.907-0.18c1.307-0.025,1.59,0.249,1.476,1.559c-0.119,1.359-0.271,2.724-0.526,4.062
		c-0.208,1.087-0.707,1.31-1.822,1.207c-0.956-0.088-1.921-0.079-2.882-0.109c-0.985-0.031-1.974-0.019-2.956-0.094
		c-1.256-0.096-1.694,0.275-1.687,1.51c0.026,4.535,0.049,9.07,0.062,13.604c0.002,0.556-0.04,1.113-0.094,1.668
		c-0.095,0.975,0.238,1.414,1.198,1.407c2.127-0.016,4.254-0.067,6.382-0.105c0.253-0.004,0.507-0.037,0.758-0.02
		c0.786,0.058,1.099,0.471,1.071,1.257c-0.032,0.933-0.048,1.869,0.002,2.801c0.071,1.298-0.36,1.701-1.665,1.691
		c-4.814-0.029-9.627-0.016-14.441-0.018c-0.279,0-0.558,0.024-0.835,0.009c-0.647-0.036-0.942-0.386-0.941-1.037
		c0.025-16.417,0.046-32.834,0.066-49.251c0.001-0.759,0.003-1.519-0.04-2.275c-0.052-0.905,0.369-1.39,1.271-1.383
		c4.508,0.038,9.016,0.081,13.524,0.109c0.504,0.003,1.009-0.066,1.511-0.118c0.905-0.091,1.563,0.457,1.562,1.336
		c0,0.987-0.008,1.976-0.039,2.961c-0.041,1.308-0.538,1.682-1.825,1.597c-1.387-0.092-2.782-0.073-4.174-0.11
		c-0.607-0.016-1.215-0.035-1.82-0.082c-1.13-0.088-1.527,0.275-1.527,1.424c0,2.533,0,5.067,0,7.601
		C47.896,20.015,47.887,20.015,47.88,20.015"/>
	<path fill="#FFFFFF" d="M237.25,53.597c0.683-0.034,1.365-0.077,2.048-0.1c0.877-0.026,1.335,0.392,1.362,1.264
		c0.032,1.059,0.049,2.12,0.05,3.18c0.002,0.835-0.658,1.411-1.46,1.403c-3.797-0.04-7.594-0.072-11.392-0.07
		c-1.109,0-1.58-0.446-1.511-1.546c0.086-1.364,0.183-2.73,0.184-4.094c0.012-14.648,0.009-29.295-0.001-43.942
		c0-0.935-0.078-1.872-0.148-2.806c-0.091-1.219,0.397-1.635,1.586-1.585c2.251,0.093,4.507,0.101,6.761,0.107
		c1.494,0.004,2.989-0.047,4.483-0.088c1.037-0.028,1.521,0.475,1.492,1.532c-0.027,0.934-0.027,1.869-0.013,2.804
		c0.015,0.96-0.655,1.589-1.648,1.533c-1.316-0.074-2.631-0.153-3.947-0.195c-0.796-0.024-1.171,0.384-1.163,1.158
		c0.04,3.697,0.091,7.396,0.109,11.093c0.007,1.493-0.056,2.986-0.097,4.479c-0.029,1.027,0.444,1.419,1.439,1.334
		c1.461-0.126,2.929-0.195,4.396-0.23c0.791-0.019,1.288,0.52,1.217,1.325c-0.1,1.157-0.244,2.314-0.454,3.456
		c-0.17,0.927-0.643,1.218-1.569,1.166c-1.289-0.071-2.579-0.135-3.868-0.195c-0.773-0.036-1.166,0.351-1.161,1.155
		c0.024,4.129,0.061,8.259,0.079,12.388c0.006,1.368-0.018,2.736-0.057,4.104c-0.033,1.175,0.161,1.406,1.307,1.413
		c0.329,0.001,0.659-0.002,0.988-0.012c0.329-0.012,0.658-0.034,0.987-0.053C237.25,53.584,237.25,53.591,237.25,53.597"/>
	<path fill="#FFFFFF" d="M246.879,35.728c0-7.271-0.003-14.544,0.008-21.815c0.001-0.424,0.089-0.855,0.186-1.271
		c0.236-1.006-0.419-1.768-1.447-1.654c-2.291,0.253-2.433,0.096-2.29-2.257c0.037-0.602-0.077-1.211-0.106-1.816
		c-0.059-1.257,0.507-1.734,1.761-1.602c0.854,0.092,1.72,0.109,2.579,0.102c3.14-0.032,6.28-0.086,9.419-0.138
		c0.903-0.015,1.412,0.492,1.409,1.404c-0.003,1.01,0.005,2.021,0.018,3.03c0.012,0.906-0.55,1.466-1.478,1.427
		c-0.43-0.019-0.856-0.107-1.285-0.125c-0.793-0.033-1.268,0.496-1.24,1.271c0.092,2.5,0.225,5.001,0.231,7.502
		c0.032,12.645,0.028,25.289,0.037,37.933c0,1.19-0.446,1.556-1.633,1.529c-1.543-0.035-3.089-0.012-4.632,0.038
		c-1.08,0.036-1.554-0.331-1.564-1.437c-0.013-1.469,0.035-2.938,0.036-4.408c0.005-5.903,0.002-11.808,0.002-17.712H246.879z"/>
	<path fill="#FFFFFF" d="M560.035,5.571c9.199,0,18.398,0.003,27.597-0.008c0.527-0.001,1.056-0.094,1.582-0.157
		c0.85-0.103,1.49,0.417,1.479,1.204c-0.035,2.76-0.096,5.52-0.097,8.279c-0.004,13.432,0.006,26.862,0.02,40.293
		c0.001,0.908,0.062,1.817,0.118,2.725c0.063,1.03-0.319,1.453-1.346,1.458c-2.887,0.015-5.774,0.031-8.661,0.047
		c-0.964,0.005-1.4-0.443-1.395-1.388c0.024-3.928,0.051-7.854,0.056-11.782c0.014-9.173,0.013-18.348,0.025-27.521
		c0.002-1.494,0.031-2.987,0.06-4.481c0.018-0.895-0.322-1.257-1.214-1.254c-8.463,0.024-16.925,0.056-25.388,0.07
		c-2.634,0.005-5.268-0.031-7.902-0.05c-0.882-0.006-1.251,0.379-1.233,1.251c0.054,2.785,0.137,5.57,0.145,8.355
		c0.029,10.542,0.03,21.084,0.048,31.626c0.004,2.231-0.692,4.038-2.947,4.883c-0.437,0.164-0.935,0.225-1.406,0.228
		c-2.711,0.02-5.422,0-8.133,0.005c-1.657,0.004-1.984-0.442-1.806-2.065c0.126-1.146,0.145-2.333-0.017-3.469
		c-0.176-1.234,0.459-2.198,1.726-1.974c0.884,0.157,1.369-0.442,1.363-1.379c-0.072-10.285-0.138-20.57-0.206-30.854
		c-0.005-0.709,0.005-1.42-0.04-2.127c-0.053-0.849,0.322-1.464,0.962-1.95c0.564-0.43,1.179-0.799,1.702-1.271
		c0.241-0.218,0.317-0.618,0.468-0.936c-0.347-0.136-0.695-0.386-1.041-0.385c-0.856,0.003-1.712,0.173-2.568,0.179
		c-1.042,0.009-1.358-0.348-1.357-1.388c0.003-1.646,0.02-3.293,0.036-4.939c0.01-1.049,0.208-1.244,1.248-1.241
		c3.216,0.011,6.432,0.028,9.648,0.031c6.158,0.005,12.316,0.001,18.474,0.001V5.571z"/>
	<path fill="#FFFFFF" d="M720.449,41.051c0-7.398,0.086-14.799-0.058-22.195c-0.039-1.982,0.591-3.299,2.134-4.338
		c0.146-0.099,0.321-0.203,0.395-0.349c0.136-0.271,0.369-0.696,0.264-0.838c-0.163-0.223-0.574-0.365-0.88-0.363
		c-1.01,0.008-2.018,0.119-3.027,0.145c-1.118,0.026-1.637-0.566-1.621-1.71c0.021-1.536,0.028-3.073,0.006-4.61
		c-0.016-0.984,0.539-1.431,1.713-1.359c1.135,0.07,2.272,0.141,3.411,0.142c7.854,0.003,15.709-0.004,23.563-0.028
		c0.979-0.003,1.96-0.103,2.938-0.195c0.903-0.085,1.504,0.488,1.462,1.478c-0.134,3.188-0.285,6.375-0.415,9.562
		c-0.135,3.289-0.265,6.579-0.377,9.87c-0.256,7.544-0.498,15.089-0.749,22.633c-0.059,1.772-0.049,3.552-0.223,5.312
		c-0.111,1.119-0.334,2.29-0.812,3.293c-0.588,1.235-1.769,1.85-3.18,1.851c-2.255,0.001-4.51-0.024-6.766-0.027
		c-0.733-0.001-1.469,0.019-2.202,0.054c-1.149,0.055-1.631-0.38-1.627-1.555c0.005-1.188,0.05-2.374,0.061-3.562
		c0.004-0.429-0.063-0.86-0.058-1.289c0.01-0.899,0.456-1.295,1.347-1.214c0.429,0.039,0.854,0.105,1.283,0.148
		c1.067,0.106,1.518-0.298,1.53-1.354c0.033-2.812,0.019-5.625,0.116-8.435c0.267-7.646,0.577-15.289,0.88-22.934
		c0.06-1.492,0.163-2.981,0.251-4.473c0.082-1.384-0.278-1.714-1.631-1.688c-1.669,0.031-3.341,0.004-5.011-0.045
		c-1.134-0.032-1.653,0.499-1.498,1.623c0.055,0.4,0.103,0.806,0.104,1.208c0.01,9.654,0.017,19.308,0.017,28.961
		c0.001,5.878-0.015,11.755-0.012,17.634c0,0.708,0.088,1.416,0.108,2.124c0.032,1.116-0.41,1.596-1.534,1.604
		c-0.759,0.005-1.518-0.116-2.275-0.112c-1.924,0.012-3.85,0.045-5.773,0.1c-1.567,0.044-1.941-0.348-1.896-1.882
		c0.058-1.899,0.056-3.801,0.058-5.7c0.006-5.827,0.002-11.655,0.002-17.483H720.449z"/>
	<path fill="#FFFFFF" d="M608.389,28.727c0,6.486,0.003,12.974-0.003,19.461c-0.001,0.811-0.061,1.62-0.064,2.431
		c-0.005,1.051,0.463,1.43,1.517,1.412c3.974-0.068,7.95-0.212,11.921-0.108c1.87,0.049,3.043-0.753,3.943-2.163
		c0.32-0.501,0.517-1.177,0.517-1.772c-0.002-3.926-0.104-7.853-0.115-11.779c-0.023-8.919-0.009-17.839-0.023-26.759
		c-0.002-0.834-0.084-1.668-0.157-2.5c-0.085-0.962,0.468-1.543,1.415-1.534c2.809,0.025,5.617,0.038,8.427,0.025
		c1.245-0.007,1.798,0.508,1.775,1.718c-0.055,3.038-0.133,6.076-0.137,9.114c-0.014,9.071,0.013,18.144,0,27.216
		c-0.003,1.864-0.002,3.739-0.2,5.588c-0.218,2.026-1.306,3.697-2.647,5.197c-0.136,0.15-0.289,0.285-0.41,0.447
		c-1.774,2.363-4.315,3.533-6.995,4.468c-0.438,0.152-0.95,0.126-1.428,0.126c-8.413,0.008-16.826,0.006-25.239,0.009
		c-0.734,0.001-1.469,0.038-2.203,0.038c-0.933,0-1.291-0.38-1.288-1.292c0.037-13.377,0.073-26.755,0.104-40.132
		c0.008-3.37-0.002-6.74-0.006-10.11c0-0.229-0.014-0.456-0.033-0.683c-0.12-1.403,0.188-1.707,1.636-1.673
		c1.95,0.047,3.899,0.085,5.849,0.101c0.681,0.005,1.363-0.074,2.045-0.109c1.227-0.062,1.919,0.273,1.911,1.677
		c-0.034,7.196-0.016,14.392-0.016,21.588C608.451,28.727,608.42,28.727,608.389,28.727"/>
	<path fill="#FFFFFF" d="M772.058,32.389c0-4.458-0.001-8.916,0.001-13.375c0-1.542,0.013-3.085,0.013-4.628
		c-0.001-1.063-0.354-1.391-1.432-1.375c-0.531,0.009-1.063-0.039-1.594-0.01c-0.683,0.037-1.057,0.399-1.072,1.117
		c-0.086,3.694-0.116,7.391-0.289,11.08c-0.273,5.82-0.689,11.633-0.961,17.452c-0.162,3.491-0.146,6.991-0.244,10.485
		c-0.045,1.594-0.155,3.186-0.266,4.776c-0.084,1.213-0.507,1.496-1.715,1.471c-2.608-0.055-5.219-0.048-7.826-0.057
		c-1.667-0.006-1.822-0.335-1.683-2.021c0.3-3.581,0.463-7.175,0.658-10.764c0.346-6.322,0.697-12.643,0.997-18.967
		c0.133-2.808,0.119-5.623,0.234-8.432c0.022-0.57,0.243-1.175,0.519-1.684c0.555-1.021,1.247-1.965,1.803-2.986
		c0.184-0.339,0.239-0.853,0.119-1.208c-0.059-0.175-0.651-0.232-1.004-0.233c-0.962-0.004-1.924,0.073-2.887,0.075
		c-0.965,0.003-1.55-0.627-1.358-1.571c0.287-1.414,0.281-2.799,0.05-4.222c-0.223-1.368,0.085-1.699,1.461-1.739
		c1.466-0.043,2.936,0.001,4.403,0.002c6.259,0.003,12.517,0.007,18.774,0.004c0.378,0,0.759-0.03,1.134-0.083
		c1.353-0.192,2.508,0.789,2.506,2.162c-0.027,15.63-0.061,31.26-0.083,46.89c-0.001,1.062,0.062,2.124,0.117,3.186
		c0.056,1.067-0.374,1.586-1.431,1.593c-3.546,0.021-7.093,0.032-10.641,0.029c-1.045,0-1.312-0.274-1.263-1.332
		c0.072-1.59,0.177-3.179,0.306-4.766c0.102-1.238,0.271-1.363,1.537-1.38c0.7-0.009,1.124-0.479,1.134-1.332
		c0.009-0.809-0.049-1.619-0.05-2.429c-0.005-5.243-0.002-10.486-0.002-15.729C772.036,32.389,772.047,32.389,772.058,32.389"/>
	<path fill="#FFFFFF" d="M686.908,59.356c-1.418,0-2.837-0.001-4.255,0c-1.052,0.002-1.461-0.445-1.435-1.487
		c0.068-2.555,0.158-5.11,0.16-7.665c0.004-10.186-0.021-20.369-0.04-30.555c-0.002-0.706-0.089-1.412-0.06-2.115
		c0.015-0.359,0.1-0.797,0.323-1.049c0.653-0.731,1.389-1.392,2.1-2.072c0.327-0.313,0.846-0.643,0.49-1.107
		c-0.207-0.27-0.775-0.368-1.181-0.366c-1.261,0.009-2.521,0.152-3.783,0.152c-10.564-0.001-21.129-0.023-31.692-0.033
		c-1.419-0.002-2.838,0.047-4.256,0.04c-0.95-0.005-1.438-0.503-1.426-1.396c0.022-1.645,0.051-3.288,0.085-4.932
		c0.024-1.151,0.488-1.507,1.589-1.251c0.245,0.058,0.499,0.107,0.749,0.107c14.719-0.007,29.438-0.015,44.156-0.041
		c1.796-0.003,3.593-0.097,5.388-0.178c1.205-0.056,1.666,0.392,1.643,1.587c-0.027,1.391-0.028,2.782,0.002,4.173
		c0.027,1.248-0.198,1.606-1.385,1.986c-1.174,0.374-1.647,1.099-1.629,2.319c0.034,2.229,0.027,4.456,0.028,6.684
		c0.004,10.261-0.003,20.521,0.01,30.782c0.002,1.52,0.087,3.037,0.126,4.558c0.008,0.276,0.008,0.559-0.033,0.832
		c-0.127,0.857-0.396,1.058-1.269,1.051c-1.469-0.011-2.938-0.003-4.406-0.003C686.908,59.371,686.908,59.364,686.908,59.356"/>
	<path fill="#FFFFFF" d="M700.925,32.294c0-8.105,0.001-16.213-0.002-24.318c-0.001-0.432-0.041-0.861-0.051-1.291
		c-0.022-0.908,0.469-1.327,1.362-1.296c2.426,0.087,4.853,0.143,7.279,0.185c0.399,0.007,0.798-0.13,1.2-0.172
		c0.989-0.105,1.604,0.501,1.587,1.453c-0.071,3.872-0.156,7.743-0.163,11.615c-0.025,12.488-0.021,24.978-0.019,37.467
		c0,0.605,0.087,1.211,0.116,1.816c0.057,1.199-0.427,1.63-1.623,1.617c-2.71-0.027-5.421-0.036-8.131,0.003
		c-1.347,0.021-1.593-0.165-1.593-1.544c0.001-8.512,0.001-17.022,0.001-25.535H700.925z"/>
	<path fill="#FFFFFF" d="M622.531,25.029c0,6.056,0,12.11,0,18.165c0,0.845-0.461,1.346-1.295,1.513
		c-1.437,0.288-2.868,0.604-4.297,0.935c-1.275,0.294-2.54,0.636-3.814,0.935c-0.733,0.173-1.155-0.214-1.152-0.979
		c0.044-11.502,0.09-23.003,0.119-34.505c0.004-1.466-0.067-2.935-0.143-4.399c-0.028-0.54,0.151-0.907,0.654-1.05
		c0.406-0.115,0.839-0.2,1.259-0.196c2.43,0.021,4.857,0.087,7.286,0.107c1.087,0.009,1.403,0.302,1.402,1.388
		c-0.004,6.029-0.002,12.059-0.002,18.087C622.543,25.029,622.537,25.029,622.531,25.029"/>
	<path fill="#FFFFFF" d="M501.901,21.185c-0.839-0.005-1.425,0.663-1.355,1.57c0.061,0.782,0.179,1.564,0.18,2.346
		c0.012,7.649,0.009,15.299-0.002,22.947c-0.001,0.682-0.058,1.366-0.143,2.044c-0.156,1.24,0.403,1.701,1.672,1.637
		c1.736-0.088,3.485-0.074,5.22,0.028c1.204,0.072,1.837-0.466,1.678-1.663c-0.09-0.678-0.164-1.36-0.173-2.041
		c-0.021-1.672-0.014-3.344,0.005-5.015c0.076-6.808,0.161-13.615,0.245-20.422c0.01-0.844-0.604-1.445-1.418-1.437
		C505.84,21.196,503.872,21.185,501.901,21.185 M453.695,51.622v0.021c0.253,0,0.507-0.002,0.76,0
		c6.003,0.04,12.005,0.08,18.008,0.118c0.738,0.005,1.196-0.471,1.201-1.268c0.004-0.582-0.052-1.164-0.052-1.747
		c0.001-7.17,0.004-14.339,0.012-21.509c0.003-2.154,0.026-4.307,0.031-6.461c0.002-1.172-0.523-1.612-1.662-1.448
		c-0.475,0.068-0.957,0.118-1.436,0.119c-4.814,0.007-9.628,0.028-14.441-0.004c-7.445-0.049-14.889-0.136-22.334-0.206
		c-0.778-0.008-1.35,0.569-1.324,1.342c0.048,1.391,0.143,2.78,0.145,4.169c0.009,6.79-0.011,13.58-0.005,20.37
		c0.001,0.857-0.011,1.739,0.173,2.568c0.292,1.322,0.926,2.51,1.899,3.484c0.737,0.739,1.669,0.443,2.532,0.445
		C442.701,51.629,448.197,51.622,453.695,51.622 M446.459,59.187c-19.285,0.001-38.57-0.003-57.856,0.004
		c-2.76,0.001-5.52,0.05-8.28,0.088c-0.84,0.011-1.318-0.461-1.307-1.303c0.021-1.646,0.039-3.291,0.033-4.937
		c-0.005-1.187,0.387-1.513,1.553-1.482c2.608,0.065,5.218,0.077,7.827,0.082c3.624,0.006,7.247-0.018,10.871-0.021
		c0.327-0.001,0.655,0.048,0.982,0.084c0.874,0.099,1.423-0.374,1.42-1.251c-0.031-9.02-0.066-18.04-0.095-27.06
		c-0.001-0.454,0.038-0.91,0.068-1.364c0.072-1.077-0.539-1.799-1.621-1.878c-0.301-0.021-0.611-0.001-0.908,0.049
		c-1.898,0.318-3.79,0.667-5.69,0.967c-0.772,0.122-1.559,0.193-2.34,0.204c-3.571,0.049-7.143,0.066-10.714,0.102
		c-0.912,0.009-1.37-0.42-1.37-1.329c-0.002-1.695-0.001-3.391,0.005-5.085c0.003-0.919,0.369-1.278,1.307-1.274
		c8.844,0.028,17.687,0.055,26.531,0.093c1.159,0.005,2.324,0.012,3.476,0.121c1.513,0.145,2.27,0.983,2.379,2.536
		c0.069,0.985,0.109,1.974,0.11,2.962c0.009,9.554,0.01,19.107,0.004,28.661c0,0.658-0.067,1.315-0.113,1.972
		c-0.082,1.166,0.47,1.661,1.619,1.64c1.867-0.037,3.737-0.008,5.605,0.044c0.83,0.022,1.395-0.505,1.391-1.419
		c-0.034-8.312-0.061-16.621-0.097-24.933c-0.01-2.204-0.035-4.407-0.064-6.61c-0.035-2.666,1.801-4.299,4.34-4.636
		c5.602-0.741,11.227-0.298,16.841-0.338c8.361-0.059,16.722-0.056,25.083-0.067c4.51-0.007,9.021,0.003,13.531,0.021
		c1.929,0.008,3.049,0.91,3.035,3.087c-0.066,10.314-0.036,20.628-0.048,30.942c-0.001,0.81-0.063,1.619-0.088,2.43
		c-0.034,1.12,0.47,1.537,1.594,1.459c0.878-0.062,1.765-0.037,2.646,0.003c1.027,0.045,1.414-0.296,1.404-1.298
		c-0.034-3.293-0.079-6.587-0.084-9.881c-0.013-7.83-0.004-15.66-0.008-23.491c-0.001-0.709-0.06-1.419-0.045-2.127
		c0.018-0.827,0.482-1.217,1.317-1.213c8.033,0.033,16.065,0.05,24.097,0.104c1.084,0.007,2.179,0.112,3.247,0.3
		c1.071,0.187,1.748,0.966,1.981,1.98c0.237,1.029,0.382,2.104,0.386,3.158c0.019,6.106-0.022,12.214-0.028,18.321
		c-0.003,3.851,0.094,7.705-0.01,11.554c-0.034,1.281-0.394,2.615-0.891,3.805c-0.52,1.242-1.287,2.417-2.121,3.484
		c-1.514,1.939-3.588,2.764-6.055,2.761c-15.586-0.021-31.171-0.017-46.756-0.02C458.522,59.185,452.49,59.186,446.459,59.187"/>
	<path fill="#FFFFFF" d="M279.469,21.353c-0.899-0.168-1.484,0.51-1.377,1.446c0.07,0.601,0.178,1.204,0.18,1.807
		c0.017,5.573,0.021,11.146,0.013,16.721c-0.001,1.413-0.085,2.828-0.063,4.242c0.01,0.659-0.001,1.427,0.317,1.952
		c0.688,1.142,1.564,2.172,2.396,3.222c0.466,0.587,1.123,0.843,1.875,0.853c1.088,0.013,2.176,0.047,3.263,0.047
		c8.386-0.001,16.771-0.015,25.156-0.01c1.338,0.001,2.676,0.07,4.014,0.119c0.848,0.03,1.543-0.711,1.454-1.562
		c-0.068-0.653-0.179-1.309-0.175-1.963c0.052-8.508,0.123-17.017,0.185-25.524c0.007-0.859-0.548-1.479-1.302-1.464
		c-1.797,0.036-3.594,0.108-5.391,0.11C299.832,21.358,289.65,21.353,279.469,21.353 M323.495,59.2
		c-15.305,0-30.611,0.005-45.917-0.007c-2.075-0.002-3.964-0.684-5.497-2.064c-1.214-1.094-2.378-2.288-3.349-3.599
		c-1.519-2.05-1.811-4.47-1.785-6.984c0.067-6.562,0.052-13.125,0.052-19.688c0-2.66-0.107-5.321-0.036-7.979
		c0.025-0.957,0.19-2.079,0.722-2.812c0.668-0.919,1.715-1.579,2.932-1.876c3.487-0.851,7.015-0.307,10.518-0.331
		c10.919-0.074,21.839-0.025,32.758-0.024c3.472,0,6.943,0.002,10.414-0.009c0.632-0.003,1.266-0.039,1.895-0.103
		c1.106-0.112,1.672,0.396,1.649,1.522c-0.028,1.343-0.081,2.685-0.082,4.026c-0.008,9.579-0.003,19.157-0.01,28.736
		c-0.001,0.784-0.058,1.568-0.095,2.352c-0.043,0.944,0.415,1.412,1.362,1.409c1.357-0.003,2.714,0.002,4.072,0.012
		c0.723,0.006,1.311-0.71,1.294-1.572c-0.032-1.621-0.076-3.241-0.079-4.862c-0.017-9.275-0.02-18.549-0.039-27.824
		c-0.002-0.706-0.066-1.413-0.138-2.116c-0.1-0.987,0.283-1.527,1.277-1.559c1.519-0.046,3.04-0.01,4.56-0.025
		c1.343-0.012,2.685-0.035,4.027-0.071c1.168-0.031,1.744,0.585,1.621,1.738c-0.05,0.478-0.087,0.958-0.087,1.438
		c-0.009,10.542-0.01,21.083-0.019,31.625c-0.001,0.556-0.048,1.112-0.087,1.668c-0.072,1.029,0.523,1.64,1.543,1.576
		c0.278-0.018,0.556-0.028,0.834-0.03c0.994-0.004,1.467-0.511,1.462-1.514c-0.056-11.147-0.106-22.295-0.16-33.442
		c-0.003-0.607-0.048-1.216-0.039-1.823c0.012-0.817,0.426-1.215,1.23-1.21c2.456,0.015,4.912,0.036,7.368,0.048
		c0.404,0.002,0.81-0.018,1.213-0.057c1.191-0.115,1.706,0.352,1.692,1.546c-0.019,1.545-0.05,3.09-0.051,4.636
		c-0.006,9.4-0.005,18.803-0.011,28.203c-0.001,0.531-0.018,1.066-0.084,1.592c-0.145,1.138,0.139,1.774,0.96,2.032
		c0.819,0.259,1.875-0.24,2.236-1.141c0.203-0.508,0.343-1.071,0.364-1.615c0.091-2.303,0.167-4.607,0.173-6.912
		c0.021-8.134,0.014-16.268,0.007-24.401c-0.001-0.733-0.057-1.469-0.132-2.197c-0.129-1.249,0.491-1.794,1.723-1.763
		c2.679,0.068,5.361,0.062,8.04,0.01c1.152-0.023,1.807,0.471,1.802,1.6c-0.039,9.324-0.074,18.648-0.115,27.974
		c-0.008,1.799,0.152,3.624-0.1,5.39c-0.329,2.31-0.256,4.735-1.367,6.88c-0.517,0.997-1.175,1.934-1.862,2.825
		c-0.246,0.32-0.747,0.562-1.159,0.612c-1,0.121-2.017,0.142-3.028,0.142c-14.824,0.008-29.648,0.005-44.472,0.005V59.2z"/>
	<path fill="#FFFFFF" d="M446.506,11.12c-1.392,0-2.784-0.014-4.176,0.004c-1.155,0.015-1.576-0.46-1.556-1.617
		c0.039-2.248,0.017-4.497,0.018-6.746c0-0.304-0.035-0.607-0.023-0.911c0.036-0.901,0.431-1.303,1.324-1.299
		c2.279,0.011,4.558,0.045,6.837,0.056c0.58,0.002,1.164-0.02,1.741-0.084c1.06-0.119,1.602,0.337,1.605,1.466
		c0.003,1.62-0.04,3.239-0.044,4.86c-0.002,0.886,0.046,1.771,0.051,2.656c0.007,1.199-0.5,1.636-1.677,1.602
		c-1.366-0.041-2.733-0.011-4.1-0.011C446.506,11.104,446.506,11.112,446.506,11.12"/>
	<path fill="#FFFFFF" d="M460.571,0.517c1.366,0,2.733,0.012,4.099-0.004c1.107-0.013,1.664,0.565,1.653,1.675
		c-0.025,2.527-0.026,5.055-0.025,7.583c0.001,0.924-0.484,1.376-1.411,1.369c-2.857-0.021-5.715-0.026-8.573-0.012
		c-1.065,0.007-1.534-0.478-1.492-1.608c0.063-1.668,0.126-3.337,0.145-5.006c0.009-0.757-0.108-1.514-0.135-2.271
		c-0.045-1.263,0.552-1.793,1.793-1.748c1.314,0.048,2.631,0.011,3.946,0.011C460.571,0.51,460.571,0.514,460.571,0.517"/>
	<path fill="#FFFFFF" d="M305.135,0.507c1.467,0,2.935,0.009,4.402-0.003c0.931-0.008,1.474,0.482,1.478,1.43
		c0.01,2.528,0.016,5.057-0.005,7.585c-0.011,1.246-0.461,1.59-1.686,1.576c-2.732-0.027-5.465-0.017-8.198,0.008
		c-0.919,0.009-1.36-0.237-1.466-1.146c-0.078-0.668,0.045-1.357,0.039-2.037c-0.017-1.999-0.036-3.998-0.091-5.996
		c-0.03-1.089,0.284-1.421,1.353-1.4c1.39,0.027,2.782,0.008,4.174,0.008V0.507z"/>
	<path fill="#FFFFFF" d="M291.75,11.126c-1.544,0-3.088-0.02-4.632,0.008c-1.169,0.02-1.594-0.467-1.524-1.801
		c0.052-0.984,0.094-1.971,0.1-2.957c0.009-1.519-0.015-3.038-0.031-4.558c-0.011-1.118,0.226-1.353,1.311-1.349
		c2.807,0.011,5.615,0.012,8.423,0.01c0.973-0.001,1.496,0.521,1.498,1.594c0.003,1.874-0.03,3.748-0.03,5.623
		c0,0.632,0.049,1.264,0.087,1.896c0.062,1.055-0.436,1.553-1.481,1.532c-1.24-0.022-2.481-0.005-3.721-0.005
		C291.75,11.121,291.75,11.124,291.75,11.126"/>
</g>
</svg>
