<svg id="Layer_1" data-name="Layer 1" xmlns="http://www.w3.org/2000/svg" viewBox="0 0 100 100"><defs><style>.cls-1{fill:#fff;}</style></defs><title>plm_Artboard 2</title><path class="cls-1" d="M69.14,96.21,68,93.41A46.86,46.86,0,0,0,79,87l1.87,2.38A49.91,49.91,0,0,1,69.14,96.21ZM90.32,79.57l-2.44-1.79A46.89,46.89,0,0,0,94,66.55l2.83,1.07A49.88,49.88,0,0,1,90.32,79.57Z"/><path class="cls-1" d="M93.41,32A47,47,0,0,0,87,21l2.38-1.87a50,50,0,0,1,6.87,11.73ZM77.77,12.12A46.86,46.86,0,0,0,66.55,6l1.07-2.84A49.87,49.87,0,0,1,79.57,9.68Z"/><path class="cls-1" d="M6,33.45,3.19,32.38A49.89,49.89,0,0,1,9.68,20.43l2.44,1.79A46.92,46.92,0,0,0,6,33.45ZM21,13l-1.87-2.38A49.93,49.93,0,0,1,30.86,3.79L32,6.59A46.91,46.91,0,0,0,21,13Z"/><path class="cls-1" d="M32.38,96.8a49.88,49.88,0,0,1-11.95-6.48l1.79-2.44A46.89,46.89,0,0,0,33.45,94ZM10.67,80.87A50,50,0,0,1,3.79,69.14L6.59,68A46.93,46.93,0,0,0,13,79Z"/><path class="cls-1" d="M50,100a50.91,50.91,0,0,1-6.52-.42l.39-3a47.83,47.83,0,0,0,12.27,0l.39,3A50.91,50.91,0,0,1,50,100ZM99.58,56.53l-3-.39a47.63,47.63,0,0,0,0-12.27l3-.39a50.64,50.64,0,0,1,0,13.05Zm-99.15,0a50.53,50.53,0,0,1,0-13.05l3,.39a47.52,47.52,0,0,0,0,12.27ZM56.13,3.43a48,48,0,0,0-12.27,0l-.39-3a50.86,50.86,0,0,1,13,0Z"/></svg>